# xmcd
#
# Track frame offsets:
#	150
#	30620
#	36142
#	50205
#	73680
#	97705
#	107012
#	120065
#	137560
#	154102
#	177650
#	190035
#
# Disc length: 2744 seconds
#
# Revision: 1
# Processed by: cddbd v1.5.1PL0 Copyright (c) Steve Scherf et al.
# Submitted via: CDex 1.50Beta5
#
DISCID=980ab60c
DTITLE=オムニバス - Caz for Wedding
DYEAR=1900
DGENRE=
TTITLE0=アンダンテ〜ディヴェルティメント
TTITLE1=トランペット・チューン
TTITLE2=トランペット・ヴォランタリー
TTITLE3=結婚行進曲-真夏の夜の夢
TTITLE4=結婚行進曲-ローエングリン
TTITLE5=美しきロスマリン
TTITLE6=乾杯の歌-椿姫
TTITLE7=ワルツ〜弦楽セレナード
TTITLE8=愛の喜び
TTITLE9=夜想曲第2番 変ホ長調 作品9-2
TTITLE10=ムーン・リバー
TTITLE11=星に願いを
EXTD=
EXTT0=
EXTT1=
EXTT2=
EXTT3=
EXTT4=
EXTT5=
EXTT6=
EXTT7=
EXTT8=
EXTT9=
EXTT10=
EXTT11=
PLAYORDER=
